<svg t="1768821713079" class="icon" viewBox="0 0 1024 1024" version="1.1" xmlns="http://www.w3.org/2000/svg" p-id="1040" width="200" height="200"><path d="M485.89 551.01l261.03 150.7c13.92 8.04 31.73 3.27 39.77-10.66 8.03-13.93 3.27-31.73-10.65-39.76L522 504.62V206.15c0-7.72-3.07-15.12-8.53-20.58-5.46-5.47-12.86-8.53-20.59-8.53s-15.13 3.06-20.59 8.53a29.104 29.104 0 0 0-8.53 20.58v316.6c0 7.72 3.07 15.13 8.53 20.59a29.08 29.08 0 0 0 13.59 7.67z m25.2-486.79c247.04 0 447.61 200.56 447.61 447.61S758.14 959.44 511.09 959.44 63.48 758.87 63.48 511.83 264.05 64.22 511.09 64.22z" p-id="1041"></path></svg>